<svg width="35" height="35" viewBox="0 0 35 35" fill="none" xmlns="http://www.w3.org/2000/svg">
<g id="mail (1) 3">
<g id="Group">
<path id="Vector" d="M1.45825 22.2393C0.85419 22.2393 0.364502 22.729 0.364502 23.333C0.364502 23.937 0.85419 24.4268 1.45825 24.4268H5.83325C6.43731 24.4268 6.927 23.937 6.927 23.333C6.927 22.729 6.43731 22.2393 5.83325 22.2393H1.45825Z" fill="white"/>
<path id="Vector_2" d="M1.45825 26.6143C0.85419 26.6143 0.364502 27.104 0.364502 27.708C0.364502 28.312 0.85419 28.8018 1.45825 28.8018H10.2083C10.8123 28.8018 11.302 28.312 11.302 27.708C11.302 27.104 10.8123 26.6143 10.2083 26.6143H1.45825Z" fill="white"/>
<path id="Vector_3" d="M4.53374 7.42302L4.375 7.29167C4.82475 6.67265 5.30337 6.21733 5.92239 5.76758C7.83912 4.375 10.5733 4.375 16.0417 4.375H18.9583C24.4266 4.375 27.1609 4.375 29.0776 5.76758C29.6966 6.21733 30.1375 6.62276 30.5872 7.24178L30.4041 7.42394L27.0384 10.7896C24.5859 13.2421 22.8228 15.0019 21.302 16.1623C19.8065 17.3033 18.6747 17.7609 17.4999 17.7609C16.3249 17.7609 15.1931 17.3033 13.6976 16.1623C12.1768 15.0019 10.4137 13.2421 7.96123 10.7896L5.12731 7.95572L4.53374 7.42302Z" fill="white"/>
<path id="Vector_4" d="M2.9165 17.5C2.9165 13.6501 2.9165 11.1555 3.40245 9.34716L3.62212 9.54431L6.47344 12.3956C8.85383 14.776 10.7193 16.6415 12.3705 17.9013C14.0606 19.1908 15.6542 19.9484 17.4997 19.9484C19.3451 19.9484 20.9387 19.1908 22.6288 17.9013C24.2799 16.6415 26.1454 14.776 28.5259 12.3956L31.5923 9.3291C32.0832 11.1388 32.0832 13.6373 32.0832 17.5C32.0832 22.9683 32.0832 25.7026 30.6906 27.6192C30.2409 28.2383 29.6965 28.7827 29.0774 29.2324C27.1607 30.625 24.4265 30.625 18.9582 30.625H16.0415C13.9585 30.625 12.2722 30.625 10.8767 30.548C12.1653 30.2458 13.1248 29.0891 13.1248 27.7083C13.1248 26.0975 11.819 24.7917 10.2082 24.7917H8.35965C8.60781 24.3626 8.74984 23.8646 8.74984 23.3333C8.74984 21.7225 7.444 20.4167 5.83317 20.4167H2.92702C2.9165 19.5401 2.9165 18.5726 2.9165 17.5Z" fill="white"/>
</g>
</g>
</svg>
