<svg width="92" height="115" viewBox="0 0 92 115" fill="none" xmlns="http://www.w3.org/2000/svg">
<g id="icon">
<path id="Subtract" fill-rule="evenodd" clip-rule="evenodd" d="M44.9304 99.8687C61.9287 99.8687 75.7085 86.0889 75.7085 69.0906C75.7085 52.0923 61.9287 38.3125 44.9304 38.3125C27.9322 38.3125 14.1523 52.0923 14.1523 69.0906C14.1523 86.0889 27.9322 99.8687 44.9304 99.8687ZM44.9304 92.1747C57.6791 92.1747 68.0139 81.8398 68.0139 69.0911C68.0139 56.3424 57.6791 46.0075 44.9304 46.0075C32.1817 46.0075 21.8468 56.3424 21.8468 69.0911C21.8468 81.8398 32.1817 92.1747 44.9304 92.1747Z" fill="#FE5716"/>
<path id="Subtract_2" fill-rule="evenodd" clip-rule="evenodd" d="M89.8608 69.0916C89.8608 93.9059 69.7448 114.022 44.9304 114.022C20.116 114.022 0 93.9059 0 69.0916C0 46.7012 16.3779 28.1361 37.8072 24.7227V31.9543C20.3323 35.286 7.12311 50.6462 7.12311 69.0916C7.12311 89.972 24.05 106.899 44.9304 106.899C65.8108 106.899 82.7377 89.972 82.7377 69.0916C82.7377 67.7968 82.6726 66.5173 82.5456 65.256H89.6994C89.8063 66.5204 89.8608 67.7996 89.8608 69.0916Z" fill="#0A9642"/>
<path id="Vector 1" d="M55.058 68.5306L41.6788 82.0989V68.5306H34.9893L48.6073 54.7324V68.5306H55.058Z" fill="#FE5716"/>
<path id="Union" fill-rule="evenodd" clip-rule="evenodd" d="M80.6 0H75.1267V5.47329H80.6V0ZM60.5312 9.12215H69.6534V18.2443H60.5312V9.12215ZM62.3557 31.0153H69.6534V38.313H62.3557V31.0153ZM76.9511 49.2596V41.9619H84.2488V49.2596H76.9511ZM91.5466 34.6642H87.8977V38.313H91.5466V34.6642Z" fill="#FE5716"/>
<path id="Union_2" fill-rule="evenodd" clip-rule="evenodd" d="M44.1113 21.8926H53.2335V31.0147H44.1113V21.8926ZM82.4244 54.7324H87.8976V58.3812H82.4244V54.7324ZM80.5999 23.7171H75.1266V29.1904H80.5999V23.7171Z" fill="#0A9642"/>
</g>
</svg>
