<svg width="37" height="37" viewBox="0 0 37 37" fill="none" xmlns="http://www.w3.org/2000/svg">
<g id="iphone 1">
<g id="Group">
<path id="Vector" fill-rule="evenodd" clip-rule="evenodd" d="M10.7915 4.23926C10.1529 4.23926 9.63525 4.75693 9.63525 5.39551V31.6038C9.63525 32.2424 10.1529 32.7601 10.7915 32.7601H26.2082C26.8467 32.7601 27.3644 32.2424 27.3644 31.6038V5.39551C27.3644 4.75693 26.8467 4.23926 26.2082 4.23926H10.7915ZM7.32275 5.39551C7.32275 3.47977 8.87577 1.92676 10.7915 1.92676H26.2082C28.1238 1.92676 29.6769 3.47977 29.6769 5.39551V31.6038C29.6769 33.5195 28.1238 35.0726 26.2082 35.0726H10.7915C8.87577 35.0726 7.32275 33.5195 7.32275 31.6038V5.39551Z" fill="white"/>
<path id="Vector_2" fill-rule="evenodd" clip-rule="evenodd" d="M15.8018 7.70801C15.8018 7.06943 16.3194 6.55176 16.958 6.55176H20.0413C20.6799 6.55176 21.1976 7.06943 21.1976 7.70801C21.1976 8.34658 20.6799 8.86426 20.0413 8.86426H16.958C16.3194 8.86426 15.8018 8.34658 15.8018 7.70801Z" fill="white"/>
<path id="Vector_3" fill-rule="evenodd" clip-rule="evenodd" d="M14.2603 29.291C14.2603 28.6525 14.7779 28.1348 15.4165 28.1348H21.5832C22.2217 28.1348 22.7394 28.6525 22.7394 29.291C22.7394 29.9296 22.2217 30.4473 21.5832 30.4473H15.4165C14.7779 30.4473 14.2603 29.9296 14.2603 29.291Z" fill="white"/>
</g>
</g>
</svg>
