<svg width="35" height="35" viewBox="0 0 35 35" fill="none" xmlns="http://www.w3.org/2000/svg">
<g id="location (1) 2">
<g id="Group">
<g id="Group_2">
<path id="Vector" d="M17.5002 9.77051C15.0335 9.77051 13.0269 11.7773 13.0269 14.2438C13.0269 16.7104 15.0335 18.7171 17.5002 18.7171C19.9668 18.7171 21.9735 16.7104 21.9735 14.2438C21.9735 11.7773 19.9667 9.77051 17.5002 9.77051Z" fill="white"/>
</g>
</g>
<g id="Group_3">
<g id="Group_4">
<path id="Vector_2" d="M27.9674 4.33576C25.1715 1.53979 21.454 0 17.5 0C13.546 0 9.82851 1.53979 7.03261 4.33576C4.23657 7.1318 2.69678 10.8492 2.69678 14.8032C2.69678 22.8021 10.2601 29.4552 14.3233 33.0295C14.8879 33.5262 15.3755 33.9551 15.7639 34.3178C16.2507 34.7727 16.8752 35 17.4999 35C18.1246 35 18.7493 34.7726 19.236 34.318C19.6245 33.9551 20.112 33.5262 20.6766 33.0295C24.7399 29.4552 32.3032 22.8022 32.3032 14.8032C32.3032 10.8492 30.7634 7.1318 27.9674 4.33576ZM17.5 20.7674C13.9029 20.7674 10.9765 17.841 10.9765 14.2438C10.9765 10.6467 13.9029 7.7203 17.5 7.7203C21.0971 7.7203 24.0235 10.6467 24.0235 14.2438C24.0235 17.841 21.0971 20.7674 17.5 20.7674Z" fill="white"/>
</g>
</g>
</g>
</svg>
